<svg viewBox="0 0 800 600" xmlns="http://www.w3.org/2000/svg" fill="none">
<style type="text/css">
	.st2{fill-rule:evenodd;clip-rule:evenodd;fill:#FEFEFE;}
	.st4{fill-rule:evenodd;clip-rule:evenodd;fill:currentColor;}
</style>
	<path class="st2" d="M388.3,78.1L388.3,78.1c-10.1,18.8-15.6,39.7-16.1,61c0.1,28.1,12.6,54.8,34,73.1c-6.2-0.2-12.3,0.1-18.5,0.8
		c-14.9,1.3-26.5,2.4-43.2-9l-21.1-14.4l1.6,4.9c2.6,7.8,6.2,15.3,10.7,22.2c-12.4-6.5-20.3-19.2-20.5-33.1
		c0.4-9.1,1.9-18.1,4.5-26.8l2.1-6.6l-5.4,4.8c-4.4,4.3-8.7,8.9-12.6,13.7c-7.9,9.5-12.5,21.3-12.9,33.7c0,3.6,0.4,7.2,1.3,10.7
		c0.6,2.3,1.5,4.6,2.4,6.9c-7.1-3.2-14.7-5.4-22.4-6.7c-8.9-1.1-18-0.8-26.8,1.1l-4.7,1.3l5.7,1.5c8.8,2.8,17.3,6.3,25.4,10.7
		c-16.2-2.7-32.7-1.4-48.3,3.8c-20.2,6.4-38,18.5-51.3,34.9l-4.1,5.4c0.3,0,35.4-18.5,62.1-14.9c10.3,1.5,20.2,4.6,29.6,9.2
		c-11,1.8-21.5,5.8-30.9,11.6c-42.6,3.2-81.7,24.8-107,59.3c-3.9,5.4-7.5,11.1-10.7,17.1l-3.2,5.4l7-4.1
		c14.1-8.8,29.5-15.5,45.6-19.7c13.3-2.6,27.1-2.4,40.3,0.8c15.4,4.1,29.9,11,42.9,20.3c-25.8,2.9-49.1,16.5-64.4,37.5l-4.8,6.1
		l6.1-2.3l4.7-1.9c13.5-6.1,28.1-9.5,42.9-10.1c15.6,0,28.8,3.3,57.1,21.8l0,0c7.9,5,16.1,10.1,25.2,14.8
		c-1.4-0.3-11.4-1.6-12.6-1.9l7.3,4.3l7.2,4.5l18,10.7c59,34.9,105.9,18.4,116.3,13.9c8.5,19.8,24.5,39.6,49,60.6l4.1,3.5l6.7-4.6
		c-0.7,1.9-1.9,4.6-1.9,4.6c10.9-5.5,20.9-12.7,29.4-21.5c6.9-1.3,12.2-2.6,16.4-3.8l4.5,3.8l1.8,1.5
		c-15.7,18.2-53.6,41.9-54.3,42.2l-7.5,5l9.8-1.4c16.6-2.9,32.7-8.3,47.8-15.8c31.1-16.4,56.1-42.3,71.3-73.9
		c37.1-32.9,41.1-69.7,41.6-76.7c1.2-8.1,1.8-16.2,1.8-24.4l-0.3-9.8c-0.2-3.8-0.6-7.6-1.2-11.4c-2.2-17-7.6-33.4-16.1-48.3l5.4-4.1
		v-32.8l-5.4-1.4c0,0-3-0.9-9-2c-0.5-1.7-3.8-11.5-4.5-13.7c34.1-20.2,54.9-57.1,54.4-96.8c0-7.6-0.7-15.3-1.9-22.8v-0.3
		c-3.8-17.6-11.1-34.3-21.5-49l-3.9-4.9l0.9,7.6c0.9,7.4,1.4,14.8,1.5,22.2v0.6c0,42.9-38.7,65.2-62.9,75.1
		c-17-27.2-37.8-51.8-61.7-73.1l-3.4-2.9l-4.6-4l-4.6,4.1c-25.5,22.3-48,47.7-67.1,75.6c-15.1-4.3-57-24-60.9-80.5
		c-0.4-9,0-17.9,1.3-26.8C395.1,64.5,388.3,78.1,388.3,78.1"/>
    <path class="st4" d="M588.6,285.3c-10.7,0.8-22.6-9.7-22.6-9.7l13.7-1.6c0,0.3,0,0.5,0,0.8c-0.1,3.8,2.9,7,6.7,7.1c0,0,0,0,0,0h0.6
	c-1.1-0.6-1.7-1.8-1.6-3c0.1-1.7,1.5-3,3.2-3c1.7,0,3.1,1.4,3.1,3.2c0,0,0,0,0,0c0,0,0,0.3,0,0.5c1.2-1.2,1.8-2.8,1.9-4.5
	c0-0.9-0.1-1.9-0.5-2.7l9.8-1.1c0,0-44.3-3-105.6-2c-1.9,0-2.7-4.7-2.5-9.4c1.4-1.7,2.3-2.6,2.3-2.6l-1.9-1c0.5-3.1,1.4-5.4,2.9-5.4
	c56.8-4.7,149.8,1.9,149.8,1.9s-43.2-13.9-136.8-10.7c-0.9-45.1,5.8-90.1,20-133c0,0-24.5,49.6-30.1,133.2c-2.5,0-6.2,0.4-6.2,0.4
	c3.5-49.6,16.6-98.1,38.6-142.7c22.3,16.4,55.3,52.7,55.3,52.7c-15.7-23.1-34.3-44-55.3-62.4c-26.3,23-49.6,49.4-69,78.4
	c0,0-64.9-12.9-69.7-87.8c-42.9,83.5,18,132.1,40,142.7c-42.4-14.4-59,9.2-93.7-14.3c6.4,12.7,13.7,18.3,20.8,20.7
	c-6.1,0.4-12.3-0.4-18.2-2.3c-33.1-12.5-38.4-38.2-34-55.4c-36.2,47.4,24.1,77.2,31.4,79.9c-28.8-6.1-26.8-23.9-70.1-33.3
	c19.5,8.3,22.5,17.3,30.2,25.2c-54.4-28.3-99,4-107.3,10.1c76.7-37.5,112,12.3,153.4,20.4c44,9.5,60.6-17,87.6-10.7
	c-29.7,2.1-44.7,37.5-87.2,27.7c-38.7-9.5-67.6-56.2-129.9-43.7c42.9,2.8,61,21.5,62.2,22.6c-32.2,0.5-48.8,13.6-48.8,13.6
	S166,286.3,127.4,341c64.4-60.5,126.2-42.9,130.6-41.3c42.1,10,86,56.8,133.4,38.3c-55.2,7.6-68.6-31.1-127.2-47.4
	c53.6-2.4,82.9,51.2,126.6,44.5c32.5-5.4,47-37.5,50.6-47.7c0,0.4,0,0.8,0,1.1c-13,62.2-59.9,83-111.1,74.2
	c-68.9-13-110.9-78-186.1-29.9c61.8-22.3,107.3,21.5,128.4,36.3c-32.7-18.9-72.7,13.1-75.1,15.1c82.8-25.8,90.1,51.9,193.1,49
	c-18.7,6.5-52.4,2.1-58.4,0c54.7,32.7,99.5,22.3,119,11.5c9.7,30.8,41.2,57.8,49.5,64.9c6.2-4.2,11.8-9.2,16.6-15
	c-1.5,4.1-3.5,8-6,11.6c12.8-7.8,23.9-18.2,32.6-30.5c6.7,8.1,14.6,15.2,23.3,21.1c-8.2,13.5-40.8,35.2-40.8,35.2
	c48.5-16.3,85.9-55.3,100-104.4c8.4-28.1,20.6-58,7.1-106.4c-1.4,2.9-24.7,16.1-48.3,10.7c4.1-0.8,50.1-9.1,49.1-47.1
	c4.9-2.4,9.2-5.8,12.9-9.8l-37.1-3.5c0,0-9,12.6-21.5,13.4"/>
    <path class="st4" d="M599.6,169.7c6.8,10.6,12.8,21.7,18,33.1c0,0,71.7-36.5,54.9-120.6C674.9,145.3,604.9,167.4,599.6,169.7"/>
    <path class="st2" d="M458.6,180.2c-1.1,2.1-3.2,5.7-5.4,8.9c-66.9-21.2-61.5-87.5-61.5-87.5C397.5,138.3,423.3,168.7,458.6,180.2"/>
    <path class="st2" d="M449.3,287.4c3.5-1.8,7.3-3,11.3-3.5c11.6,9.6,21.5,14.1,42,15.7C486.5,304.4,462.9,303.7,449.3,287.4"/>
    <path class="st4" d="M622.5,214.6l4.6,11.8c0,0,68-31,54.9-115.6C684,187.8,622.5,214.6,622.5,214.6"/>
    <path class="st4" d="M502.6,266.2c-3.1,0.1-5.7-2.3-5.9-5.4c0-3.3,2.7-5.9,6-6c1.5,0,3,0.5,4.1,1.5c-1.6-3.4-5-5.5-8.7-5.4
	c-5.3,0.1-9.5,4.4-9.5,9.7c0,5,4.1,9.1,9.1,9.1c0.1,0,0.3,0,0.4,0c3.4-0.1,6.4-1.9,8.2-4.7c-1,0.8-2.3,1.2-3.6,1.3"/>
    <path class="st4" d="M588.1,265.9c-3,0-5.4-2.4-5.4-5.4c0.2-2.9,2.5-5.2,5.4-5.4c1.9-0.1,3.7,0.9,4.7,2.5c-1.1-3.8-4.7-6.4-8.6-6.3
	c-4.9,0.1-8.8,4.1-8.9,9c0,4.7,3.8,8.5,8.5,8.5c0.1,0,0.3,0,0.4,0c3.1-0.1,5.9-1.7,7.5-4.3c-1,0.9-2.2,1.4-3.5,1.4"/>
    <path class="st4" d="M627.5,267.3c-2.8,0.2-5.2-1.9-5.4-4.7c0-0.1,0-0.2,0-0.2c0-3,2.4-5.4,5.4-5.4c1.4,0,2.8,0.5,3.9,1.6
	c-1.2-3.3-4.4-5.5-7.9-5.4c-4.6,0.1-8.3,3.9-8.4,8.5c0,4.4,3.6,8,8,8c0.1,0,0.3,0,0.4,0c2.7-0.1,5.2-1.4,6.8-3.6
	c-0.8,0.5-1.8,0.8-2.7,0.9"/>
    <path class="st2" d="M499.6,274.6c0,0,0,0.5,0,0.8c-0.1,1.7-0.8,3.3-1.9,4.5c0,0,0-0.3,0-0.5c0-1.7-1.3-3.1-3-3.2
	c-1.7-0.1-3.2,1.3-3.3,3c0,1.1,0.6,2.2,1.6,2.7h-0.3c-3.8-0.1-6.8-3.3-6.7-7.1c0,0,0,0,0,0v-1.1c-5.4-0.3-11.2-0.5-16.6-0.6
	c5.6,7.2,14,11.6,23,12.3c8.9,0,20.8-9.8,20.8-9.8S507.8,275.1,499.6,274.6"/>
    <path class="st4" d="M544.4,264.9c-3,0-5.4-2.4-5.4-5.4s2.4-5.4,5.4-5.4c1.4-0.1,2.8,0.4,3.8,1.4c-1.5-3.1-4.7-5.1-8.1-4.9
	c-4.9,0.1-8.9,4.1-8.9,9c-0.1,4.7,3.6,8.5,8.3,8.6c0.2,0,0.4,0,0.5,0c3.2,0,6.2-1.8,7.8-4.6c-0.9,0.7-2.1,1.1-3.3,1.1"/>
    <path class="st2" d="M467.4,261.9c0,3-2.4,5.4-5.4,5.4s-5.4-2.4-5.4-5.4c0.1-2.9,2.5-5.2,5.4-5.4C465,256.5,467.4,258.9,467.4,261.9
	"/>
    <path class="st2" d="M560.6,300.8c22.5-11.6,34.2,2.5,53.6-19.8c5.1,1,10,3.3,14.1,6.5c-0.4,7.1-11,19.6-23.6,21.1
	c-15.3,1.4-21.1-6.8-43.9-7.8"/>
    <path class="st4" d="M628.4,284.4c17.3,17.4,28.4,40,31.6,64.4c0.6-18.3-7.8-51.5-21.9-70.3C634.8,280.4,629.6,283.8,628.4,284.4"/>
    <path class="st2" d="M547.9,338c6.2-7.3,14.5-12.5,23.8-15.1c0.6-6.1-3.9-11.5-10-12c-1.2-0.1-2.3,0-3.5,0.2
	c-0.9,5.1-2.2,10.1-3.9,14.9c1.6-16.8-1.5-33.7-9.1-48.8c-4.5,0-8.6,0-10.7,0c-7.6,14.9-10.4,31.9-8.1,48.5c-1.7-4.4-3.2-9-4.4-13.6
	c-5.2-2.1-11,0.4-13.1,5.6c-0.9,2.1-1,4.4-0.3,6.6c9.8,0.7,18.9,5.2,25.4,12.6C537.7,340.7,543.6,341.2,547.9,338"/>
    <path class="st2" d="M597.6,365.6c-0.7-1.4-2.5-4.4-3.3-5.8c4.1,1.6,8.3,2.5,12.7,2.8c-8.7-6.1-16.3-13.8-22.2-22.6
	c-4.6-8.4-7.9-10.7-15.4-10.1c-8.3,1.2-16.2,4.1-23.2,8.7c-3.7,1.5-8,1.1-11.4-1c-3.1-1.4-5.4-2.5-7.4-3.3
	c-5.5-2.4-11.5-3.8-17.5-4.1c-6.3-0.4-9.9,1.3-14.4,8.5c-6.3,9.1-14.1,17-23.2,23.4c4.3-0.3,8.6-1.1,12.7-2.6
	c-0.8,1.3-2.6,4.4-3.3,5.8c-6.5,11.4-15.3,21.4-25.7,29.5c42.9-9.9,43.4-48,58.6-49.3c6-1.2,13.8,2.3,23.3,2.7
	c2.2,0.1,4.4,0.1,6.6,0c8.2-0.8,14.6-3.2,20.1-2.1c15.4,1.1,15.4,37.7,58.6,49C612.8,387.1,604.1,377,597.6,365.6"/>
    <path class="st2" d="M596.9,389.4c-2.1-2.8-4.3-5.5-6.8-8c3.9,7.6,0,12.3-4.9,12.5c-10.2,0.8-18.4-10.2-18.4-10.2
	c1.8,7.6,5.1,14.8,9.9,21c-8.5-7.6-15.6-16.7-21-26.8c3.3,13,8,25.6,14.2,37.5c-13.2-11.5-28.5-46.5-28.5-46.5
	c-6.1,16.7-14,32.7-23.7,47.6c4.3-12.1,7.3-24.7,8.8-37.5c-3.5,10.4-9.2,20-16.7,27.9c7.3-15.4,6.7-22.5,6.7-22.5
	c-3.3,5.2-8.4,9-14.3,10.7c-6.8,1.9-13.1-2.4-12.3-11.4c-2.4,2.8-4.5,5.7-6.3,8.9c-6.4,14.9-7.2,31.7-2.2,47.1
	c2.9,8.8,6.4,17.3,10.7,25.4c2.7,5.2,5.8,10.1,9.2,14.9l1.4,2c8-5.8,21.2-18.6,29-44.9c-0.1,5.9-0.9,11.9-2.3,17.6
	c7.1-9.2,11.6-20.1,13.1-31.6c2.4,11.5,7.6,22.1,15.1,31.1c-1.6-5.8-2.7-11.7-3.3-17.6c0,0,10.7,32.8,27.4,45.6
	c5.5-7.5,10.2-15.6,13.8-24.1c-1.7,1.1-3.5,2.1-5.4,3.1c10.7-17.6,21.5-49.4,6.8-71.8"/>
    <path class="st2" d="M565.6,367.7c-6.4,1.1-13.2-1.6-24.9-1.4c-9.7,0-21.5,3.6-27.5,0c-4.1-2.5-0.9-11,4.2-13.5s16.1-0.4,23.9-0.5
	c7.8-0.1,16.1-1.6,22.5,0.8c7,3.4,8,13.9,1.8,14.6"/>
    <path class="st2" d="M589.7,428.5c0,0,65.5-20.7,63.9-79.1c2.3,10.1,23.1,67.6-66.4,100.6C588.7,442.9,589.5,435.7,589.7,428.5"/>
    <path class="st4" d="M633.7,303.4c25.1,23.8,52.2,112.6-78.9,136.4C669.6,399.4,643.2,327.9,633.7,303.4"/>
    <path class="st4" d="M577.6,452.3c76.3-28.4,80.9-76.7,80.9-76.7s-0.3,82-121,114.1c48.3-26.1,58.3-40.5,58.3-40.5
	c-5.9,1.9-12,2.9-18.2,3"/>
</svg>
